<?xml version="1.0" encoding="utf-8"?><svg viewBox="0 0 80 80" xmlns="http://www.w3.org/2000/svg" xmlns:xlink="http://www.w3.org/1999/xlink"><style>:root>svg{display:none}:root>svg:target{display:block}</style><svg viewBox="0 0 60 60" id="add" xmlns="http://www.w3.org/2000/svg"><path d="M29.062 30.937H13.125v-1.875h15.938V13.124h1.875v15.938h15.937v1.875H30.937v15.937h-1.875zM0 29.999A30.007 30.007 0 118.789 51.21 28.9 28.9 0 010 30zm1.875 0a28.008 28.008 0 108.2-19.922A27.629 27.629 0 001.875 30z" fill="#fff"/></svg><svg viewBox="0 0 35.362 54.936" id="award" xmlns="http://www.w3.org/2000/svg"><path d="M32.669 27.877a17.28 17.28 0 012.693 9.409 17.681 17.681 0 01-35.362 0 17.265 17.265 0 012.693-9.409 16.8 16.8 0 017.143-6.371Q4.918 9.706 4.918 7.598v-7.6h25.526v7.6q0 1.638-4.918 13.908a16.825 16.825 0 017.143 6.371zm-21.077-7.188a18.537 18.537 0 016.089-1.052 16.9 16.9 0 015.972 1.052q4.8-11.221 4.8-13.091v-5.61h-9.836v13.441h-1.991V1.988H6.907v5.61q0 1.521 4.684 13.091zm21.779 16.6a15 15 0 00-4.625-11.1 15.709 15.709 0 00-22.131 0 15.642 15.642 0 000 22.208 15.709 15.709 0 0022.131 0 15 15 0 004.625-11.111zm-3.864 0a11.783 11.783 0 11-3.454-8.357 11.371 11.371 0 013.454 8.354zm-1.99 0a9.523 9.523 0 00-2.869-6.9 9.765 9.765 0 00-13.934 0 9.723 9.723 0 000 13.792 9.767 9.767 0 0013.934 0 9.516 9.516 0 002.869-6.895z" fill="#38c695"/></svg><svg viewBox="0 0 46.185 50.062" id="clients" xmlns="http://www.w3.org/2000/svg"><path d="M7.291 29.333a17.4 17.4 0 00-5.235 12.711v4.009h22.015v1.956H0v-5.965a19.6 19.6 0 014.11-12.222 18.882 18.882 0 0110.372-7.04 12.907 12.907 0 01-4.794-4.4 11.333 11.333 0 01-1.859-6.355 11.5 11.5 0 013.572-8.506 12.011 12.011 0 0120.5 8.506 11.8 11.8 0 01-1.81 6.4 11.564 11.564 0 01-4.843 4.351 19.41 19.41 0 019.1 5.28h-3.033a17.508 17.508 0 00-11.253-4.009 17.3 17.3 0 00-12.771 5.284zM20.06 22a9.808 9.808 0 007.143-2.885 10.027 10.027 0 000-14.177 9.817 9.817 0 00-7.143-2.884 9.973 9.973 0 100 19.946zm26.126 22.1h-6.067v5.964h-1.958V44.1h-6.07v-2.054h6.067v-5.964h1.957v5.964h6.067z" fill="#38c695"/></svg><svg viewBox="0 0 15 15" id="facebook" xmlns="http://www.w3.org/2000/svg"><path d="M14.18.82A2.713 2.713 0 0115 2.812v9.375A2.8 2.8 0 0112.188 15H2.813a2.8 2.8 0 01-2.812-2.812V2.813A2.8 2.8 0 012.814 0h9.375a2.713 2.713 0 011.991.82zM9.61 5.947H8.2v-.762a.9.9 0 01.1-.5c.068-.1.239-.146.513-.146h.762V2.986h-1.23a1.691 1.691 0 00-1.436.513 2.565 2.565 0 00-.381 1.537v.909H5.385v1.552h1.143v4.512h1.67V7.5h1.23z" fill="#616161"/></svg><svg viewBox="0 0 29.766 30.005" id="facebook2" xmlns="http://www.w3.org/2000/svg"><path d="M29.063.709a3.531 3.531 0 01.7 2.52q0 15.643-.059 23.5a2.739 2.739 0 01-3.281 3.281h-9.668a2.175 2.175 0 01-1.406-.353 1.6 1.6 0 01-.352-1.347v-5.069q0-3.368.059-5.068a1.828 1.828 0 00-.293-1.2 1.354 1.354 0 00-1.113-.263 12.594 12.594 0 01-2.461 0q-.7 0-.7-.528c0-.39.234-.586.7-.586h2.7a1.131 1.131 0 00.967-.234 1.207 1.207 0 00.205-.937 22.813 22.813 0 010-3.281 3.443 3.443 0 011.23-2.782 3.815 3.815 0 013.047-.615 7.984 7.984 0 012.637.762.17.17 0 01.117.059q.761.352.586.819-.294.646-1.23.234a7.266 7.266 0 00-2.93-.7 1.94 1.94 0 00-2.109 1.7 6.069 6.069 0 00-.205 1.349c-.02.468-.02 1 0 1.582s.029 1.035.029 1.347v.234c.038.313.352.469.938.469h4.512c.664 0 1 .2 1 .586q0 .822-1.055.7-1.406 0-4.453-.116a.907.907 0 00-.791.176 1.254 1.254 0 00-.205.82q.117 4.863 0 9.785 0 1.113 1.055 1.113 1.406 0 2.93.028t3.4.089q1.875.059 2.93.058a2.129 2.129 0 001.523-.381 2.723 2.723 0 00.41-1.611l.176-23.2q0-1.581-.352-1.9a3.833 3.833 0 00-1.992-.381Q18.7 1.135 3.466 1.134q-1.406 0-1.7.323a3.653 3.653 0 00-.41 1.787L1.18 26.33q0 1.581.381 1.934a3.216 3.216 0 001.9.351q3.4 0 5.039.06 1.23 0 1.289.586 0 .7-1.23.7H2.641a2.524 2.524 0 01-2.637-2.754V15.078h.059V3.124a3.431 3.431 0 01.7-2.461 3.168 3.168 0 012.4-.644h23.379a3.534 3.534 0 012.521.69z" fill="#fff"/></svg><svg viewBox="0 0 50.043 44.344" id="gift" xmlns="http://www.w3.org/2000/svg"><path d="M50.043 17.365h-1.955v26.979H1.953V17.365H-.002v-7.75H15.93a5.835 5.835 0 01.2-7.946A5.567 5.567 0 0120.235.001a5.9 5.9 0 009.578 0 5.771 5.771 0 014.3 9.615h15.932zM27.123 3.042a3.851 3.851 0 00-1.124 2.747v3.826h3.812a3.824 3.824 0 002.737-1.128 3.61 3.61 0 001.173-2.7 3.847 3.847 0 00-3.91-3.924 3.583 3.583 0 00-2.688 1.179zm-9.627 5.444a3.822 3.822 0 002.737 1.128h3.812V5.788a3.857 3.857 0 00-1.124-2.747 3.587 3.587 0 00-2.688-1.178 3.847 3.847 0 00-3.91 3.924 3.61 3.61 0 001.172 2.7zM1.955 15.403h22.089v-3.827H1.953zm1.857 27.076h20.232V17.364H3.812zm42.419-25.115H25.999v25.115h20.232zm1.857-5.788H25.999v3.827h22.089z" fill="#feb960"/></svg><svg viewBox="0 0 27.891 30" id="googleplus2" xmlns="http://www.w3.org/2000/svg"><path d="M17.226 22.675a6.267 6.267 0 01-1.055 4.98 5.85 5.85 0 01-3.164 1.935 17.218 17.218 0 01-2.285.41h-2.93a7.082 7.082 0 01-1.055-.118 16.3 16.3 0 01-3.809-.937 5.1 5.1 0 01-2.637-2.636 10.029 10.029 0 01-.293-1.23v-1.173a.522.522 0 00.059-.234 3.814 3.814 0 01.469-1.523 2.236 2.236 0 01.234-.409q.292-.117.615.409a1 1 0 01.146.938 3.934 3.934 0 00-.234 2.05 3.185 3.185 0 001.758 2.462 5.5 5.5 0 001.875.7 18.076 18.076 0 005.1.41 8.881 8.881 0 002.813-.41 4.518 4.518 0 002.578-1.7 4.918 4.918 0 00.645-2.7 4.11 4.11 0 00-1.465-3.339.4.4 0 00-.293-.118 49.752 49.752 0 00-5.8-.409 16.626 16.626 0 00-3.691.527 1.25 1.25 0 00-.322.059 1.9 1.9 0 00-.322.117.552.552 0 01-.381-.234 1.533 1.533 0 01-.293-.469.314.314 0 01.029-.353 18.689 18.689 0 017.031-.878c.156 0 .41.02.762.059a7.871 7.871 0 00.82.058 7.486 7.486 0 00-.586-.5q-.411-.322-.586-.439a2.8 2.8 0 01-1.113-2.871.245.245 0 00-.059-.177H9.67a7.428 7.428 0 01-2.637 0 6.649 6.649 0 01-5.449-4.453 8.474 8.474 0 01-.41-4.159 6.953 6.953 0 011.23-3.281 7.113 7.113 0 014.395-2.7Q7.092.28 7.59.193a4.7 4.7 0 01.732-.088 67.7 67.7 0 017.969 0q.233 0 .352.41a.568.568 0 01-.059.556.59.59 0 01-.527.265h-2.754a.665.665 0 00-.293.058 1.9 1.9 0 01.322.235 1.111 1.111 0 01.264.292 7.106 7.106 0 012.4 4.512 7.737 7.737 0 01-1.758 6.035 13.758 13.758 0 01-1.934 1.465 6.705 6.705 0 00-.7.587 1.358 1.358 0 00-.176 2.167 4.708 4.708 0 001.172.938q2.578 1.759 2.7 1.876a5.313 5.313 0 011.934 3.163zm-3.75-11.308a5.333 5.333 0 001.289-3.105 5.655 5.655 0 00-.586-3.575A5.834 5.834 0 009.96 1.464a7.794 7.794 0 00-4.687.762 4.6 4.6 0 00-2.461 2.813 7.279 7.279 0 00-.469 2.813 6.247 6.247 0 00.82 3.1 5.854 5.854 0 005.449 2.872 7.225 7.225 0 004.863-2.461zm14.414 2.871v.352a.889.889 0 01-.879.469h-3.105c-.274 0-.41.116-.41.351v3.165q0 .877-.586.878a.768.768 0 01-.645-.878v-3.223a.259.259 0 00-.293-.293h-3.227q-.821 0-.82-.587 0-.643.82-.644h3.164q.352 0 .352-.411v-3.4q.117-.645.645-.528.585 0 .586.528v3.516q0 .293.352.293h3.164a1.011 1.011 0 01.879.41z" fill="#fff"/></svg><svg viewBox="0 0 50.099 47.388" id="graph" xmlns="http://www.w3.org/2000/svg"><path d="M5.871 45.43h43.445v1.958h-45.4v-7.931H.002v-1.958h3.914v-7.931H.002V27.61h3.914v-7.833H.002v-1.958h3.914v-7.93H.002V7.931h3.914V0h1.957v30.842l13.895-16.449 9.785 9.889 18.983-22.91 1.566 1.174-20.554 24.477-9.785-9.791L5.868 33.975z" fill="#fc5f45"/></svg><svg viewBox="0 0 48.004 48.039" id="graph2" xmlns="http://www.w3.org/2000/svg"><path d="M48.003 0v48.039h-48V0zM1.99 1.992v37.377l5.854-6.8 5.971 3.984 9.952-14.062 9.015 7.148 13.23-18.982V1.992zm44.023 44.056v-31.87l-12.762 18.4-9.016-7.146-9.952 13.825-6.088-3.983-6.206 7.146v3.633z" fill="#fc5f45"/></svg><svg viewBox="0 0 39.737 39.952" id="guarantee" xmlns="http://www.w3.org/2000/svg"><path d="M39.738 19.977a19.293 19.293 0 01-5.83 14.114 19.743 19.743 0 01-28.077 0 20 20 0 010-28.229 19.743 19.743 0 0128.077 0 19.3 19.3 0 015.83 14.115zm-1.586 0a17.758 17.758 0 00-5.364-12.99 18.174 18.174 0 00-25.839 0 18.41 18.41 0 000 25.978 18.174 18.174 0 0025.839 0 17.755 17.755 0 005.364-12.988zm-6.62-7.129a1.03 1.03 0 01-.093 1.689L17.82 27.854a1.006 1.006 0 01-.746.281 1.136 1.136 0 01-.839-.281l-5.317-5.346a1.058 1.058 0 010-1.688 1.046 1.046 0 011.679 0l4.477 4.5 12.779-12.473a1.046 1.046 0 011.679.001z" fill="#feb960"/></svg><svg viewBox="0 0 50.099 42.856" id="heart" xmlns="http://www.w3.org/2000/svg"><path d="M50.099 13.32a12.958 12.958 0 01-3.914 9.485L25.05 42.857 3.915 23.002a13.338 13.338 0 01-3.914-9.633 13.01 13.01 0 013.914-9.534A13.215 13.215 0 0113.7.001a12.738 12.738 0 019.394 3.834 30.856 30.856 0 012.153 2.949A11.344 11.344 0 0127.4 3.835a13.424 13.424 0 0118.787 0 12.961 12.961 0 013.912 9.485zm-2.153-.246a11.015 11.015 0 00-3.327-8.06 10.514 10.514 0 00-8.024-3.342 11.027 11.027 0 00-8.121 3.342q-.784.984-1.663 2.261l-1.761 2.949-1.761-2.949a18 18 0 00-1.663-2.261A11.582 11.582 0 005.285 21.429L25.05 40.4l19.766-18.971a11.322 11.322 0 003.131-8.355z" fill="#b27cf5"/></svg><svg viewBox="0 0 15 15" id="instagram" xmlns="http://www.w3.org/2000/svg"><path d="M14.18.82A2.713 2.713 0 0115 2.812v9.375a2.8 2.8 0 01-2.812 2.812H2.813a2.8 2.8 0 01-2.812-2.812V2.812A2.8 2.8 0 012.814-.001h9.375A2.713 2.713 0 0114.18.82zm-1.992 2.343a.31.31 0 00-.352-.351H3.164a.31.31 0 00-.352.351v8.672a.31.31 0 00.352.351h8.672a.31.31 0 00.352-.351zM9.376 5.624h1.875V3.749H9.376zm-1.875 0a1.9 1.9 0 11-1.318.557A1.8 1.8 0 017.5 5.625zm2.725 1.407h1.025v4.218h-7.5V7.031h1.025a3.521 3.521 0 00-.059.468 2.665 2.665 0 00.82 1.979 2.8 2.8 0 003.926 0 2.667 2.667 0 00.82-1.979 3.609 3.609 0 00-.059-.468z" fill="#616161"/></svg><svg viewBox="0 0 30 30" id="instagram2" xmlns="http://www.w3.org/2000/svg"><path d="M30 27.066a3.1 3.1 0 01-.645 2.228 3.281 3.281 0 01-2.227.7H2.812A2.491 2.491 0 010 27.24v-5.977q0-1.055.645-1.055.527.059.527 1.055v5.684a1.631 1.631 0 001.816 1.874h24.023a1.58 1.58 0 001.816-1.758v-9.434a1.378 1.378 0 00-.234-.908.933.933 0 00-.82-.2 1.675 1.675 0 01-.879 0 4.918 4.918 0 00-3.076.322 4.236 4.236 0 00-1.787 2.548 5.653 5.653 0 01-2.842 3.341 7.132 7.132 0 01-4.365 1.055 8.857 8.857 0 01-4.629-1.875 7.118 7.118 0 01-2.578-3.926 1.686 1.686 0 00-1.992-1.465H1.289Q0 16.638 0 15.407V2.283Q.117-.002 2.754-.002h24.492A2.434 2.434 0 0130 2.752v24.315zm-10.049-6.533a6.476 6.476 0 001.9-4.774 6.146 6.146 0 00-1.9-4.6 7.093 7.093 0 00-4.834-1.963 6.152 6.152 0 00-4.658 1.992 6.449 6.449 0 00.059 9.433 5.69 5.69 0 004.658 1.817 6.476 6.476 0 004.775-1.901zm8.613-5.536a1.257 1.257 0 00.264-1.055q-.118-5.508 0-10.957a1.977 1.977 0 00-.439-1.437 1.92 1.92 0 00-1.494-.381H2.93a1.953 1.953 0 00-1.348.381 1.748 1.748 0 00-.41 1.318v11.192a1.248 1.248 0 00.264.938 1.2 1.2 0 00.908.176q3.1 0 3.516.059a1.377 1.377 0 001.172-.118 1.964 1.964 0 00.527-1.112 7.731 7.731 0 012.871-4.424 7.209 7.209 0 014.863-1.611 8.217 8.217 0 014.717 1.7 7.62 7.62 0 012.783 4.278 1.393 1.393 0 001.523 1.289 16.63 16.63 0 013.164-.059A1.3 1.3 0 0028.564 15zm-2.08-11.134a4.886 4.886 0 01.352 2.461 4 4 0 01-.469 2.432 3.4 3.4 0 01-2.285.5 3.518 3.518 0 01-2.373-.527 4.229 4.229 0 01-.5-2.579q0-1.991.41-2.343a5.446 5.446 0 012.637-.352q1.876.002 2.228.411zm-.762 2.345a2.421 2.421 0 00-.381-1.377q-.323-.381-1.26-.147a1.69 1.69 0 00-1.348.147 1.51 1.51 0 00-.352 1.317 3.224 3.224 0 00.322 1.465q.264.412 1.26.353a2.254 2.254 0 001.377-.41 1.822 1.822 0 00.381-1.348zm-8.086 13.477c-.039.156-.029.263.029.321s.019.128-.117.206a1.73 1.73 0 00-.234.146 1.806 1.806 0 01-.264.146l-.234.059a5.5 5.5 0 01-1.816.352 4.968 4.968 0 01-3.984-2.021 4.469 4.469 0 01-1-4.249 1.758 1.758 0 01.059-.293 1.783 1.783 0 01.117-.351.58.58 0 01.176-.206.411.411 0 01.352-.028q.585.059.469 1.112a3.831 3.831 0 001.23 3.838 4.227 4.227 0 004.043.733q1-.352 1.172.234z" fill="#fff"/></svg><svg viewBox="0 0 15 15.001" id="linkedin" xmlns="http://www.w3.org/2000/svg"><path d="M14.18.821A2.713 2.713 0 0115 2.813v9.375a2.8 2.8 0 01-2.812 2.813H2.813a2.8 2.8 0 01-2.812-2.813V2.813A2.8 2.8 0 012.814 0h9.375a2.712 2.712 0 011.991.821zm-8.555 3.75H3.75v6.562h1.875zm0-1.289a.868.868 0 00-.249-.615.883.883 0 00-1.26 0 .866.866 0 00-.249.615.879.879 0 101.758 0zm6.563 3.837a3.818 3.818 0 00-.205-1.317 1.715 1.715 0 00-.513-.792 2.328 2.328 0 00-.586-.337 1.653 1.653 0 00-.571-.1 2.961 2.961 0 00-1.875.615v-.615H6.563v6.562h1.875V7.093l.059-.205a1.066 1.066 0 01.366-.411 1.182 1.182 0 01.718-.2q.732 0 .732.82v4.042h1.875z" fill="#616161"/></svg><svg viewBox="0 0 55 42.983" id="photography" xmlns="http://www.w3.org/2000/svg"><path d="M46.406 42.984H0V6.879h46.406zM1.719 8.598v22.886l11.172-11.283L25.137 34.17l8.486-5.157 11.064 9.563V8.596zm42.969 32.667v-.429l-11.279-9.672-8.7 5.158-11.817-13.539L1.72 33.85v7.415zM7.735.002H55v36.105h-7.734v-1.723h6.016V1.717H9.454v4.3H7.735zm21.484 18.913a5.136 5.136 0 111.5 3.653 4.973 4.973 0 01-1.5-3.655zm1.719 0a3.31 3.31 0 10.967-2.472 3.345 3.345 0 00-.968 2.47z" fill="#b27cf5"/></svg><svg viewBox="0 0 80 80" id="playBtn" xmlns="http://www.w3.org/2000/svg"><path d="M34.687 25.312L52.5 39.062v1.875l-17.812 13.75-2.187-.938v-27.5zM35 51.249L49.219 40 35 28.75zm45-11.25a40.01 40.01 0 11-11.719-28.281A38.538 38.538 0 0180 40zm-2.5 0a37.345 37.345 0 10-10.937 26.563A36.849 36.849 0 0077.5 40z" fill="#38c695"/></svg><svg viewBox="0 0 39.997 40" id="price" xmlns="http://www.w3.org/2000/svg"><path d="M39.997 20.001a20.005 20.005 0 11-5.859-14.14 19.267 19.267 0 015.859 14.14zm-1.641 0a18.271 18.271 0 10-5.351 13.008 17.712 17.712 0 005.351-13.008zm-20.9-2.5a16.609 16.609 0 003.906 1.758 11.5 11.5 0 013.945 2.148 4.9 4.9 0 011.875 3.75 4.987 4.987 0 01-1.562 3.711 7.1 7.1 0 01-4.3 1.836v2.657h-1.8V30.47q-4.218-.156-6.328-2.5l1.328-1.485.625.547a7.522 7.522 0 002.148 1.212 7.94 7.94 0 003.008.586 5.215 5.215 0 003.242-.976 3.042 3.042 0 001.289-2.539 3.415 3.415 0 00-1.758-2.89 14.115 14.115 0 00-3.906-1.8 10.857 10.857 0 01-3.906-2.07 4.436 4.436 0 01-1.747-3.554 4.955 4.955 0 011.641-3.632 6.616 6.616 0 014.14-1.836v-2.89h1.875v2.89a7.728 7.728 0 015.312 1.953l-1.172 1.719-.625-.469a7.788 7.788 0 00-1.875-.938 7.082 7.082 0 00-2.5-.469 5.208 5.208 0 00-3.32 1.016 3.077 3.077 0 00-1.289 2.5 3.135 3.135 0 001.758 2.656z" fill="#38c695"/></svg><svg viewBox="0 0 35.938 34.688" id="share" xmlns="http://www.w3.org/2000/svg"><path d="M35.938 5.313a5.206 5.206 0 01-1.562 3.828 5.113 5.113 0 01-3.75 1.563 5.03 5.03 0 01-4.609-2.657L10.47 14.61a7.259 7.259 0 01.156 1.406 5.7 5.7 0 01-.625 2.579l10 7.188a5.2 5.2 0 013.984-1.8 5.058 5.058 0 013.75 1.6 5.249 5.249 0 011.563 3.789 5.313 5.313 0 01-10.625 0 5.215 5.215 0 01.547-2.5l-10-7.266a5.059 5.059 0 01-3.906 1.719 5.177 5.177 0 01-3.75-1.523 5.375 5.375 0 010-7.578 5.177 5.177 0 013.75-1.523 4.927 4.927 0 014.609 2.656l15.625-6.562a4.665 4.665 0 01-.234-1.485 5.313 5.313 0 0110.625 0zM20.001 29.376a3.985 3.985 0 007.969 0 3.928 3.928 0 00-1.172-2.89 3.96 3.96 0 00-5.625 0 3.927 3.927 0 00-1.172 2.89zm-10.7-13.359a4 4 0 10-1.172 2.813 3.836 3.836 0 001.168-2.814zm25.313-10.7a3.985 3.985 0 00-7.969 0 3.926 3.926 0 001.172 2.891 3.961 3.961 0 005.625 0 3.926 3.926 0 001.172-2.891z" fill="#fc5f45"/></svg><svg viewBox="0 0 51.985 46.753" id="smart" xmlns="http://www.w3.org/2000/svg"><path d="M27.046 35.882v3.857l9.367 5.26-.937 1.753-9.484-5.259-9.484 5.259-.937-1.753 9.367-5.26v-3.857H0V-.001h51.985v35.883zM1.99 33.895h48V1.987h-48zM29.036 7.713l1.873.585-5.5 18.467-6.44-8.882-4.215 8.3-5.62-11.454-3.161 11.688-1.99-.468L8.549 9.234l6.205 12.507 3.981-7.715 5.971 8.3zm15.221 5.961a5.875 5.875 0 011.756 4.325 5.734 5.734 0 01-1.756 4.208 5.9 5.9 0 01-4.332 1.753 5.991 5.991 0 01-5.971-5.961 5.875 5.875 0 011.756-4.325 5.756 5.756 0 014.215-1.752 5.9 5.9 0 014.332 1.752zm-1.464 7.13a3.815 3.815 0 000-5.61 4.041 4.041 0 00-2.869-1.169A3.994 3.994 0 0035.943 18a3.727 3.727 0 001.229 2.8 3.894 3.894 0 002.751 1.169 4.029 4.029 0 002.871-1.165z" fill="#feb960"/></svg><svg viewBox="0 0 47.951 47.922" id="strict" xmlns="http://www.w3.org/2000/svg"><path d="M47.951 0v47.922H0V0zM1.988 1.987v9h43.975v-9zm43.975 43.947V12.973H1.989v32.961zM14.97 8.064h3.041V5.025H14.97zm14.97 0h3.041V5.025h-3.036zM17.192 19.752h1.753v15.662h-2.1v-11.1h-3.859v-1.637h.351c1.012-.076 1.7-.135 2.047-.175a1.953 1.953 0 001.111-.643 2.8 2.8 0 00.7-1.754zm15.613 6.545a5.5 5.5 0 011.462 3.975 5.217 5.217 0 01-1.637 3.915 5.38 5.38 0 01-3.86 1.578 5.257 5.257 0 01-3.8-1.4 4.794 4.794 0 01-1.462-3.624v-.35h2.105v.35a2.979 2.979 0 00.935 2.28 3.289 3.289 0 002.339.876 2.889 2.889 0 002.4-1.11 4.113 4.113 0 00.877-2.63 3.527 3.527 0 00-.935-2.513 3.225 3.225 0 00-2.456-.993 3.4 3.4 0 00-3.041 1.636l-.117.117h-1.754l1.637-8.416h8.07v1.987h-6.549l-.7 3.624a4.394 4.394 0 012.573-.819 5.191 5.191 0 013.914 1.518z" fill="#fc5f45"/></svg><svg viewBox="0 0 14.991 14.979" id="sub-clients" xmlns="http://www.w3.org/2000/svg"><path d="M14.994 7.489a7.461 7.461 0 11-2.186-5.305 7.22 7.22 0 012.186 5.305zm-1.249 0a6.262 6.262 0 10-1.835 4.408 6.011 6.011 0 001.831-4.408zM7.499 3.744a3.732 3.732 0 11-2.655 1.093 3.619 3.619 0 012.65-1.093z" fill="#38c695"/></svg><svg viewBox="0 0 14.974 15.03" id="sub-gift" xmlns="http://www.w3.org/2000/svg"><path d="M14.974 7.52a7.47 7.47 0 11-2.184-5.324 7.261 7.261 0 012.184 5.324zm-1.248 0a6.269 6.269 0 10-1.833 4.423 6.043 6.043 0 001.834-4.423zM7.487 3.762a3.736 3.736 0 11-2.651 1.1 3.606 3.606 0 012.651-1.104z" fill="#feb960"/></svg><svg viewBox="0 0 14.991 15" id="sub-graph" xmlns="http://www.w3.org/2000/svg"><path d="M14.994 7.5a7.466 7.466 0 11-2.186-5.313A7.233 7.233 0 0114.994 7.5zm-1.249 0a6.266 6.266 0 10-1.835 4.414A6.023 6.023 0 0013.741 7.5zM7.499 3.75a3.733 3.733 0 11-2.654 1.093A3.614 3.614 0 017.494 3.75z" fill="#fc5f45"/></svg><svg viewBox="0 0 14.991 15.059" id="sub-heart" xmlns="http://www.w3.org/2000/svg"><path d="M14.994 7.529a7.48 7.48 0 11-2.186-5.333 7.276 7.276 0 012.186 5.333zm-1.249 0a6.279 6.279 0 10-1.835 4.432 6.058 6.058 0 001.832-4.432zM7.499 3.764a3.741 3.741 0 11-2.655 1.1 3.609 3.609 0 012.65-1.1z" fill="#b27cf5"/></svg><svg viewBox="0 0 39.834 40" id="time" xmlns="http://www.w3.org/2000/svg"><path d="M1.634 20.001A18.234 18.234 0 106.963 6.993a17.74 17.74 0 00-5.329 13.008zm38.2 0a19.964 19.964 0 11-5.835-14.14 19.307 19.307 0 015.836 14.14zm-7.625-7.656l-1.323-1.328-10.97 11.173-7.625-7.812-1.323 1.328 8.947 8.828zM19.916 3.673a1.327 1.327 0 101.324 1.328 1.331 1.331 0 00-1.323-1.328zm0 30a1.328 1.328 0 10.934 2.265 1.328 1.328 0 00-.934-2.265zm-14.938-15a1.327 1.327 0 101.324 1.328 1.331 1.331 0 00-1.323-1.328zm29.876 0a1.327 1.327 0 101.324 1.328 1.331 1.331 0 00-1.323-1.328z" fill="#b27cf5"/></svg><svg viewBox="0 0 15 15" id="twitter" xmlns="http://www.w3.org/2000/svg"><path d="M14.18.82A2.713 2.713 0 0115 2.811v9.375a2.8 2.8 0 01-2.812 2.813H2.813a2.8 2.8 0 01-2.812-2.812V2.812A2.8 2.8 0 012.814 0h9.375a2.713 2.713 0 011.991.82zm-2.021 4.043a5.036 5.036 0 01-1.055.292 1.706 1.706 0 00.791-1.025 3.381 3.381 0 01-1.172.44 1.733 1.733 0 00-1.348-.586 1.756 1.756 0 00-1.3.557 1.792 1.792 0 00-.542 1.289 2.428 2.428 0 00.059.439 5.134 5.134 0 01-3.809-1.933 1.9 1.9 0 00-.264.937 1.73 1.73 0 00.85 1.523 1.587 1.587 0 01-.85-.233v.029a1.763 1.763 0 00.425 1.157 1.894 1.894 0 001.069.659 3.54 3.54 0 01-.5.059 1.525 1.525 0 01-.352-.03A1.753 1.753 0 005.89 9.726a3.652 3.652 0 01-2.285.791c-.059 0-.137 0-.234-.015s-.166-.015-.205-.015a5.137 5.137 0 002.813.821 4.866 4.866 0 003.838-1.626 5.339 5.339 0 001.436-3.619.684.684 0 00-.015-.131.6.6 0 01-.015-.1 3.43 3.43 0 00.938-.966z" fill="#616161"/></svg><svg viewBox="0 0 30.044 25.333" id="twitter2" xmlns="http://www.w3.org/2000/svg"><path d="M29.92 3.837a4.249 4.249 0 01-.879 1.289 3.564 3.564 0 00-1.26 1.377 6.322 6.322 0 00-.586 1.523 17.15 17.15 0 00-.264 1.788 17.073 17.073 0 01-4.307 9.668 17.195 17.195 0 01-21.709 3.4 1.388 1.388 0 00-.322-.175 1.319 1.319 0 01-.322-.176 2.354 2.354 0 01-.205-.265.267.267 0 01.029-.381.489.489 0 01.205-.321.4.4 0 01.293-.06c.1.021.214.04.352.06a2.378 2.378 0 00.322.028 11.345 11.345 0 005.391-.469q.879-.233 1.055.294.117.527-.7.762-.527.176-1.553.439t-1.611.439a14.751 14.751 0 006.387 1.172 15.607 15.607 0 0010.547-4.424 17.428 17.428 0 005.039-9.756 4.965 4.965 0 00.117-.82v-1.2c0-.1.009-.293.029-.585a1.783 1.783 0 01.117-.616 4.98 4.98 0 00.205-.5 1.163 1.163 0 01.322-.5q.2-.174.5-.38a5.191 5.191 0 01.645-.382.862.862 0 01-.234-.176l-.117-.059a2.166 2.166 0 00-.557.118 1.615 1.615 0 01-.645.087.59.59 0 01-.439-.381.523.523 0 01-.029-.556 1.582 1.582 0 01.5-.41 2.531 2.531 0 00.469-.323l.352-.527-.176-.176a3.494 3.494 0 01-3.516-.586 4.748 4.748 0 00-5.244-.234 5.088 5.088 0 00-2.842 4.57 4.247 4.247 0 01-.41 2.08q-.294.265-2.168-.088a19.432 19.432 0 01-9.844-5.273 3.68 3.68 0 00-.439 2.813 6 6 0 001.494 2.929 2.5 2.5 0 00.469.323.97.97 0 01.41.352 1.281 1.281 0 010 .556.688.688 0 01-.439.411 1.378 1.378 0 01-.7-.088 2.338 2.338 0 00-.615-.146 5.649 5.649 0 00-.645-.177 5.414 5.414 0 003.281 4.277l.469.118a1.1 1.1 0 01.645.293.612.612 0 01.059.469c-.079.351-.586.566-1.523.644l-.586.118a5.174 5.174 0 003.574 2.812h.41a3.209 3.209 0 01.352.059 1.876 1.876 0 01.41.118.754.754 0 01.234.2.529.529 0 01.059.44q-.118.645-1.23.352a6.217 6.217 0 01-4.395-2.872 2.73 2.73 0 01-.234-.321 4.02 4.02 0 01-.234-.381l-.176-.353a.929.929 0 01-.117-.409 3.242 3.242 0 01.029-.41 1.426 1.426 0 01.146-.469 1.128 1.128 0 01.029-.352q.029-.059-.264-.294l-.234-.175a6.616 6.616 0 01-1.875-3.75 3.1 3.1 0 00-.059-.353 2.812 2.812 0 01-.059-.351V9.25a.4.4 0 01.088-.293 1.075 1.075 0 01.264-.176 1.937 1.937 0 01.469-.146c.352-.037.39-.234.117-.585-.079-.078-.117-.137-.117-.177a6.753 6.753 0 01-.234-5.508q.352-.995.732-1.054t1.084.7a16.75 16.75 0 008.965 5.273 1.892 1.892 0 001.23-.03q.352-.2.41-1.083A6.964 6.964 0 0117.568.838a5.379 5.379 0 015.8 0 4.154 4.154 0 004.629 0q.761-.352 1.113 0 .292.294-.117 1.055a3.018 3.018 0 01-.234.587 4.345 4.345 0 00-.234.527.54.54 0 00.645.058.985.985 0 01.234-.058q.937 0 .527.819z" fill="#fff"/></svg><svg viewBox="0 0 48.008 48.039" id="ultimate" xmlns="http://www.w3.org/2000/svg"><path d="M0 28.003h20.023v20.036H0zm1.991 18.044h16.042V29.992H1.991zm35.948-34.565L23.302 26.246l-1.405-1.406 14.754-14.763H24.005V8.086H39.93V24.02h-1.987zM48.009.001V48.04h-24v-1.992h22.014V1.992H1.996v22.027H.005V0z" fill="#b27cf5"/></svg><svg viewBox="0 0 45.846 48.039" id="unlimited" xmlns="http://www.w3.org/2000/svg"><path d="M44.735 8.26a4.829 4.829 0 01-2.865 1.7v34.1h-1.988V9.96a4.726 4.726 0 01-2.865-1.758 4.965 4.965 0 01-1.111-3.163A5 5 0 0140.935.001a4.72 4.72 0 013.45 1.464 5.158 5.158 0 01.351 6.8zm-1.754-1.055a3.117 3.117 0 000-4.335 2.8 2.8 0 00-2.047-.879 3.047 3.047 0 100 6.094 2.806 2.806 0 002.046-.88zM8.83 39.837A4.976 4.976 0 019.941 43a5 5 0 01-5.029 5.039 4.707 4.707 0 01-3.45-1.465 5 5 0 012.515-8.5v-34.1h1.988v34.1a4.731 4.731 0 012.865 1.763zm-1.754 5.331a3.046 3.046 0 00-2.164-5.214 2.8 2.8 0 00-2.047.879 3.117 3.117 0 000 4.335 2.8 2.8 0 002.047.879 2.938 2.938 0 002.164-.879zm19.765-24.312a5.06 5.06 0 010 6.327 4.732 4.732 0 01-2.865 1.758v15.115h-2.105V28.941a4.727 4.727 0 01-2.865-1.758 5.06 5.06 0 010-6.327 4.731 4.731 0 012.865-1.758V3.984h2.105v15.114a4.736 4.736 0 012.865 1.757zm-.877 3.163a3.212 3.212 0 10-.936 2.109 2.922 2.922 0 00.936-2.11z" fill="#38c695"/></svg><svg viewBox="0 0 55 49.001" id="uxDesign" xmlns="http://www.w3.org/2000/svg"><path d="M36.094 7.2L55 0v41.479l-18.906 7.2-17.187-6.877-18.906 7.2V7.523l18.906-7.2zM19.766 40.3l15.469 6.125V8.708L19.766 2.583zM1.719 46.425l16.328-6.232V2.584L1.719 8.816zM53.282 2.583L36.954 8.815v37.609l16.328-6.232z" fill="#38c695"/></svg><svg viewBox="0 0 55 38.684" id="webDesgin" xmlns="http://www.w3.org/2000/svg"><path d="M47.266 38.684H0V7.736h47.266zM45.547 9.456H1.719v27.508h43.828zM9.453 6.017H7.734V.005H55v30.947h-6.016v-1.719h4.3V1.725H9.453zm33.516 14.614h-7.734v-8.6h7.734zm-1.719-6.877h-4.3v5.158h4.3zM27.5 34.386h1.719V12.035H27.5zM4.3 15.473h20.625v-1.719H4.3zm0 4.3h18.047v-1.719H4.3zm0 4.3h18.9v-1.72H4.3z" fill="#fc5f45"/></svg><svg viewBox="0 0 43.712 40" id="" xmlns="http://www.w3.org/2000/svg"><path data-name="" d="M27.78 40V10h15.933v30zm.937-.937h14.058v-4.687H28.717zm0-5.625h14.058V14.684H28.717zm0-19.687h14.058v-2.812H28.717zM.001 40.001v-40h27.491v40zm1.25-1.249h24.995v-6.25h-25zm0-7.5h24.995v-25h-25zm0-26.251h24.995v-3.75h-25zm33.5 32.715a1.413 1.413 0 111 .41 1.354 1.354 0 01-1.005-.411zm.527-1a.468.468 0 10.469-.468.414.414 0 00-.469.47zm-22.859.235a1.883 1.883 0 111.328.547 1.806 1.806 0 01-1.329-.545zm.7-1.328a.625.625 0 10.625-.625.552.552 0 00-.623.627zm20.75-22.812v-.937h3.749v.937zm-22.623-9.06v-1.25h5v1.25z" fill="#feb960"/></svg></svg>